<?xml version="1.0" encoding="utf-8"?>
<!-- Generator: Adobe Illustrator 23.0.5, SVG Export Plug-In . SVG Version: 6.00 Build 0)  -->
<svg version="1.1" id="Layer_1" xmlns="http://www.w3.org/2000/svg" xmlns:xlink="http://www.w3.org/1999/xlink" x="0px" y="0px"
	 viewBox="0 0 150 60" style="enable-background:new 0 0 150 60;" xml:space="preserve">
<style type="text/css">
	.lt0{fill:#F58020;}
	.lt1{fill:#D62B28;}
</style>
<g>
	<text transform="matrix(1 0 0 1 354.3271 40.2314)" class="lt1" style="font-family:'VisbyRoundCF-Bold'; font-size:39.0972px;">e</text>
	<polygon class="lt0" points="413.11,16.2 437.13,32.15 439.14,27.1 414.92,11.96 	"/>
	<path class="lt1" d="M357.18,22.01c0,1.46-1.11,2.45-3.32,2.45c-3.12,0-5.1,2.41-5.3,4.03v9.52c0,1.38-1.19,2.57-2.57,2.57
		c-1.42,0-2.61-1.19-2.61-2.57V22.33c0-1.42,1.19-2.61,2.61-2.61c1.38,0,2.57,1.19,2.57,2.61v1.98c0.16-1.42,2.61-4.66,6.17-4.66
		C356.35,19.64,357.18,20.74,357.18,22.01"/>
	<path class="lt1" d="M388.78,37.82c0,1.82-1.78,2.77-4.47,2.77c-2.69,0-5.41-0.87-5.41-6.36V23.91h-1.15
		c-1.26,0-2.09-0.83-2.09-2.02c0-1.23,0.83-2.06,2.09-2.06h1.15v-2.69c0-1.42,1.19-2.61,2.61-2.61s2.57,1.19,2.57,2.61v2.69h2.61
		c1.3,0,2.09,0.83,2.09,2.06c0,1.19-0.79,2.02-2.09,2.02h-2.61v10.47c0,1.15,0.39,1.74,1.26,1.74c0.43,0,1.07-0.16,1.5-0.16
		C388.03,35.88,388.78,36.59,388.78,37.82"/>
	<path class="lt1" d="M409.48,22.29v15.77c0,1.42-1.26,2.57-2.65,2.57c-1.42,0-2.61-1.15-2.61-2.57V37.3
		c-0.32,1.22-2.41,3.36-5.85,3.36c-4.35,0-9.56-3.36-9.56-10.55c0-7.04,5.26-10.51,9.56-10.51c2.81,0,5.06,1.5,5.85,3.36v-0.67
		c0-1.38,1.19-2.57,2.61-2.57C408.22,19.72,409.48,20.9,409.48,22.29 M404.46,30.11c0-4.47-2.92-6.09-5.14-6.09
		c-2.61,0-5.34,2.06-5.34,6.09c0,4.07,2.73,6.09,5.34,6.09C401.54,36.2,404.46,34.58,404.46,30.11"/>
	<path class="lt1" d="M411.89,14.34c0-1.38,1.23-2.57,2.65-2.57c1.38,0,2.61,1.19,2.61,2.57c0,1.38-1.23,2.57-2.61,2.57
		C413.12,16.91,411.89,15.73,411.89,14.34"/>
	<path class="lt1" d="M417.11,22.33v15.65c0,1.46-1.19,2.65-2.57,2.65c-1.42,0-2.61-1.19-2.61-2.65V22.33
		c0-1.42,1.19-2.61,2.61-2.61C415.92,19.72,417.11,20.9,417.11,22.33"/>
	<path class="lt1" d="M422.17,40.58c-1.42,0-2.61-1.15-2.61-2.57V14.74c0-1.38,1.19-2.57,2.61-2.57c1.38,0,2.57,1.19,2.57,2.57
		v23.28C424.74,39.44,423.55,40.58,422.17,40.58"/>
	<path class="lt1" d="M448.12,28.06c-0.26-1.93-1.08-3.76-2.34-5.25c-2.17-2.55-5.33-3.88-8.67-3.64c-2.17,0.16-4.25,1-5.91,2.41
		c-2.36,2-3.67,4.85-3.67,7.91c0,4.65,3.1,8.69,7.49,9.94c0.43,0.12,0.82,0.38,1.09,0.74l1.45,1.93c0.16,0.22,0.48,0.22,0.65,0
		l1.45-1.93c0.27-0.36,0.65-0.61,1.08-0.73C445.57,38.05,448.84,33.29,448.12,28.06 M437.88,35.17c-3.07,0-5.55-2.48-5.55-5.55
		c0-3.07,2.48-5.55,5.55-5.55s5.55,2.48,5.55,5.55C443.43,32.69,440.94,35.17,437.88,35.17"/>
	<path class="lt1" d="M437.88,26.9c-1.51,0-2.72,1.22-2.72,2.72c0,1.5,1.22,2.72,2.72,2.72c1.5,0,2.72-1.22,2.72-2.72
		C440.6,28.12,439.38,26.9,437.88,26.9"/>
</g>
<g>
	<text transform="matrix(1 0 0 1 183.8291 44.0547)" class="lt1" style="font-family:'VisbyRoundCF-Bold'; font-size:47.124px;">e</text>
	<polygon class="lt0" points="254.68,15.09 283.62,34.31 286.06,28.23 256.87,9.98 	"/>
	<path class="lt1" d="M187.26,22.09c0,1.76-1.33,2.95-4,2.95c-3.76,0-6.14,2.91-6.38,4.86v11.48c0,1.67-1.43,3.1-3.1,3.1
		c-1.72,0-3.14-1.43-3.14-3.1V22.47c0-1.71,1.43-3.14,3.14-3.14c1.67,0,3.1,1.43,3.1,3.14v2.38c0.19-1.71,3.14-5.62,7.43-5.62
		C186.26,19.23,187.26,20.57,187.26,22.09"/>
	<path class="lt1" d="M225.35,41.14c0,2.19-2.14,3.33-5.38,3.33c-3.24,0-6.53-1.05-6.53-7.67V24.38h-1.38c-1.52,0-2.52-1-2.52-2.43
		c0-1.48,1-2.48,2.52-2.48h1.38v-3.24c0-1.71,1.43-3.14,3.14-3.14s3.1,1.43,3.1,3.14v3.24h3.14c1.57,0,2.52,1,2.52,2.48
		c0,1.43-0.95,2.43-2.52,2.43h-3.14V37c0,1.38,0.48,2.1,1.52,2.1c0.52,0,1.29-0.19,1.81-0.19
		C224.44,38.81,225.35,39.67,225.35,41.14"/>
	<path class="lt1" d="M250.31,22.42v19.01c0,1.72-1.52,3.1-3.19,3.1c-1.71,0-3.14-1.38-3.14-3.1v-0.91
		c-0.38,1.48-2.91,4.05-7.05,4.05c-5.24,0-11.53-4.05-11.53-12.72c0-8.48,6.34-12.67,11.53-12.67c3.38,0,6.1,1.81,7.05,4.05v-0.81
		c0-1.67,1.43-3.1,3.14-3.1C248.78,19.33,250.31,20.76,250.31,22.42 M244.26,31.86c0-5.38-3.53-7.34-6.19-7.34
		c-3.14,0-6.43,2.48-6.43,7.34c0,4.91,3.29,7.34,6.43,7.34C240.73,39.19,244.26,37.24,244.26,31.86"/>
	<path class="lt1" d="M253.21,12.85c0-1.67,1.48-3.1,3.19-3.1c1.67,0,3.14,1.43,3.14,3.1c0,1.67-1.48,3.1-3.14,3.1
		C254.69,15.95,253.21,14.52,253.21,12.85"/>
	<path class="lt1" d="M259.5,22.47v18.86c0,1.76-1.43,3.19-3.1,3.19c-1.71,0-3.14-1.43-3.14-3.19V22.47c0-1.71,1.43-3.14,3.14-3.14
		C258.07,19.33,259.5,20.76,259.5,22.47"/>
	<path class="lt1" d="M265.6,44.48c-1.72,0-3.14-1.38-3.14-3.1V13.33c0-1.67,1.43-3.1,3.14-3.1c1.67,0,3.1,1.43,3.1,3.1v28.06
		C268.69,43.1,267.26,44.48,265.6,44.48"/>
	<path class="lt1" d="M296.88,29.39c-0.32-2.33-1.3-4.53-2.83-6.32c-2.62-3.08-6.43-4.68-10.45-4.39c-2.61,0.19-5.12,1.21-7.12,2.91
		c-2.84,2.41-4.42,5.85-4.42,9.53c0,5.6,3.73,10.47,9.02,11.98c0.52,0.15,0.98,0.45,1.31,0.89l1.75,2.33c0.19,0.26,0.58,0.26,0.78,0
		l1.75-2.33c0.32-0.43,0.78-0.74,1.3-0.89C293.8,41.43,297.74,35.69,296.88,29.39 M284.53,37.96c-3.69,0-6.69-2.99-6.69-6.69
		c0-3.69,2.99-6.69,6.69-6.69c3.69,0,6.69,2.99,6.69,6.69C291.22,34.96,288.23,37.96,284.53,37.96"/>
	<path class="lt1" d="M284.53,27.98c-1.81,0-3.28,1.47-3.28,3.28c0,1.81,1.47,3.28,3.28,3.28c1.81,0,3.28-1.47,3.28-3.28
		C287.82,29.45,286.35,27.98,284.53,27.98"/>
</g>
<g>
	<g>
		<path class="lt1" d="M34.24,15.63c3.36,0,6.49,1.23,9.38,3.69c2.85,2.42,4.28,5.62,4.28,9.6c0,1.34-0.36,2.3-1.08,2.9
			c-0.72,0.6-1.84,0.89-3.36,0.89l-16.1-0.11c0.33,1.92,1.18,3.41,2.57,4.47c1.39,1.07,3.12,1.6,5.18,1.6c1.26,0,2.76-0.38,4.5-1.14
			c1.26-0.58,2.15-0.87,2.66-0.87c0.72,0,1.31,0.24,1.76,0.7c0.45,0.47,0.68,1.05,0.68,1.74c0,1.01-0.58,2-1.73,2.98
			c-2.21,1.55-4.92,2.33-8.13,2.33c-2.53,0-4.9-0.49-7.1-1.46c-2.28-1.01-4.14-2.66-5.58-4.93c-1.45-2.28-2.17-4.91-2.17-7.91
			c0-2.24,0.44-4.33,1.33-6.26c0.89-1.93,2.05-3.48,3.5-4.64C27.7,16.82,30.84,15.63,34.24,15.63z M27.35,27.72H40.9
			c-0.25-1.88-0.98-3.33-2.2-4.36c-1.21-1.03-2.7-1.54-4.47-1.54c-1.81,0-3.35,0.52-4.63,1.54C28.32,24.38,27.57,25.84,27.35,27.72z
			"/>
	</g>
	<polygon class="lt0" points="99.31,10.82 132.61,32.93 135.41,25.93 101.83,4.94 	"/>
	<path class="lt1" d="M21.76,18.87c0,2.03-1.53,3.4-4.6,3.4c-4.33,0-7.07,3.34-7.34,5.59v13.21c0,1.92-1.64,3.56-3.56,3.56
		c-1.97,0-3.62-1.64-3.62-3.56V19.31c0-1.97,1.64-3.62,3.62-3.62c1.92,0,3.56,1.64,3.56,3.62v2.74c0.22-1.97,3.62-6.47,8.55-6.47
		C20.61,15.59,21.76,17.12,21.76,18.87"/>
	<path class="lt1" d="M65.58,40.79c0,2.52-2.47,3.84-6.19,3.84c-3.73,0-7.51-1.21-7.51-8.82V21.5h-1.59c-1.75,0-2.9-1.15-2.9-2.79
		c0-1.7,1.15-2.85,2.9-2.85h1.59v-3.73c0-1.97,1.64-3.62,3.62-3.62s3.56,1.64,3.56,3.62v3.73h3.62c1.81,0,2.9,1.15,2.9,2.85
		c0,1.64-1.1,2.79-2.9,2.79h-3.62v14.52c0,1.59,0.55,2.41,1.75,2.41c0.6,0,1.48-0.22,2.08-0.22C64.53,38.11,65.58,39.09,65.58,40.79
		"/>
	<path class="lt1" d="M94.29,19.26v21.86c0,1.97-1.75,3.56-3.67,3.56c-1.97,0-3.62-1.59-3.62-3.56v-1.04
		c-0.44,1.7-3.34,4.66-8.11,4.66c-6.03,0-13.26-4.66-13.26-14.63c0-9.75,7.29-14.58,13.26-14.58c3.89,0,7.01,2.08,8.11,4.66v-0.93
		c0-1.92,1.64-3.56,3.62-3.56C92.53,15.69,94.29,17.34,94.29,19.26 M87.33,30.11c0-6.19-4.06-8.44-7.12-8.44
		c-3.62,0-7.4,2.85-7.4,8.44c0,5.64,3.78,8.44,7.4,8.44C83.27,38.55,87.33,36.3,87.33,30.11"/>
	<path class="lt1" d="M97.63,8.24c0-1.92,1.7-3.56,3.67-3.56c1.92,0,3.62,1.64,3.62,3.56c0,1.92-1.7,3.56-3.62,3.56
		C99.33,11.8,97.63,10.16,97.63,8.24"/>
	<path class="lt1" d="M104.86,19.31v21.7c0,2.03-1.64,3.67-3.56,3.67c-1.97,0-3.62-1.64-3.62-3.67v-21.7c0-1.97,1.64-3.62,3.62-3.62
		C103.22,15.69,104.86,17.34,104.86,19.31"/>
	<path class="lt1" d="M111.88,44.63c-1.97,0-3.62-1.59-3.62-3.56V8.79c0-1.92,1.64-3.56,3.62-3.56c1.92,0,3.56,1.64,3.56,3.56v32.28
		C115.44,43.04,113.79,44.63,111.88,44.63"/>
	<path class="lt1" d="M147.86,27.27c-0.36-2.68-1.5-5.21-3.25-7.27c-3.01-3.54-7.39-5.38-12.02-5.05c-3.01,0.22-5.89,1.39-8.19,3.34
		c-3.27,2.78-5.09,6.73-5.09,10.96c0,6.44,4.29,12.04,10.38,13.79c0.6,0.17,1.13,0.52,1.5,1.02l2.01,2.68c0.22,0.3,0.67,0.3,0.9,0
		l2.01-2.68c0.37-0.5,0.9-0.85,1.5-1.02C144.32,41.12,148.85,34.52,147.86,27.27 M133.66,37.13c-4.25,0-7.7-3.45-7.7-7.69
		c0-4.25,3.45-7.69,7.7-7.69c4.25,0,7.69,3.44,7.69,7.69C141.35,33.68,137.91,37.13,133.66,37.13"/>
	<path class="lt1" d="M133.66,25.65c-2.09,0-3.78,1.69-3.78,3.78c0,2.09,1.69,3.78,3.78,3.78c2.09,0,3.78-1.69,3.78-3.78
		C137.44,27.34,135.74,25.65,133.66,25.65"/>
</g>
</svg>
