<?xml version="1.0" encoding="utf-8"?>
<!-- Generator: Adobe Illustrator 23.0.5, SVG Export Plug-In . SVG Version: 6.00 Build 0)  -->
<svg version="1.1" id="Layer_1" xmlns="http://www.w3.org/2000/svg" xmlns:xlink="http://www.w3.org/1999/xlink" x="0px" y="0px"
	 viewBox="0 0 130 50" style="enable-background:new 0 0 130 50;" xml:space="preserve">
<style type="text/css">
	.ht0{fill:#F58020;}
	.ht1{fill:#D62B28;}
</style>
<g>
	<g>
		<path class="ht1" d="M197.17,14.67c2.42,0,4.68,0.89,6.76,2.66c2.06,1.75,3.09,4.05,3.09,6.92c0,0.96-0.26,1.66-0.78,2.09
			c-0.52,0.43-1.33,0.65-2.42,0.65l-11.61-0.08c0.23,1.38,0.85,2.46,1.86,3.23c1,0.77,2.25,1.15,3.73,1.15
			c0.91,0,1.99-0.27,3.25-0.82c0.91-0.42,1.55-0.63,1.92-0.63c0.52,0,0.94,0.17,1.27,0.51s0.49,0.76,0.49,1.25
			c0,0.73-0.42,1.45-1.25,2.15c-1.59,1.12-3.54,1.68-5.86,1.68c-1.82,0-3.53-0.35-5.12-1.06c-1.64-0.73-2.98-1.92-4.03-3.56
			c-1.04-1.64-1.56-3.54-1.56-5.71c0-1.62,0.32-3.12,0.96-4.52c0.64-1.39,1.48-2.51,2.52-3.34
			C192.46,15.53,194.72,14.67,197.17,14.67z M192.21,23.38h9.77c-0.18-1.35-0.71-2.4-1.58-3.15c-0.87-0.74-1.95-1.11-3.23-1.11
			c-1.3,0-2.42,0.37-3.34,1.11C192.91,20.98,192.36,22.03,192.21,23.38z"/>
	</g>
	<polygon class="ht0" points="244.11,11.2 268.13,27.15 270.14,22.1 245.92,6.96 	"/>
	<path class="ht1" d="M188.18,17.01c0,1.46-1.11,2.45-3.32,2.45c-3.12,0-5.1,2.41-5.3,4.03v9.52c0,1.38-1.19,2.57-2.57,2.57
		c-1.42,0-2.61-1.19-2.61-2.57V17.33c0-1.42,1.19-2.61,2.61-2.61c1.38,0,2.57,1.19,2.57,2.61v1.98c0.16-1.42,2.61-4.66,6.17-4.66
		C187.35,14.64,188.18,15.74,188.18,17.01"/>
	<path class="ht1" d="M219.78,32.82c0,1.82-1.78,2.77-4.47,2.77c-2.69,0-5.41-0.87-5.41-6.36V18.91h-1.15
		c-1.26,0-2.09-0.83-2.09-2.02c0-1.23,0.83-2.06,2.09-2.06h1.15v-2.69c0-1.42,1.19-2.61,2.61-2.61s2.57,1.19,2.57,2.61v2.69h2.61
		c1.3,0,2.09,0.83,2.09,2.06c0,1.19-0.79,2.02-2.09,2.02h-2.61v10.47c0,1.15,0.39,1.74,1.26,1.74c0.43,0,1.07-0.16,1.5-0.16
		C219.03,30.88,219.78,31.59,219.78,32.82"/>
	<path class="ht1" d="M240.48,17.29v15.77c0,1.42-1.26,2.57-2.65,2.57c-1.42,0-2.61-1.15-2.61-2.57V32.3
		c-0.32,1.22-2.41,3.36-5.85,3.36c-4.35,0-9.56-3.36-9.56-10.55c0-7.04,5.26-10.51,9.56-10.51c2.81,0,5.06,1.5,5.85,3.36v-0.67
		c0-1.38,1.19-2.57,2.61-2.57C239.22,14.72,240.48,15.9,240.48,17.29 M235.46,25.11c0-4.47-2.92-6.09-5.14-6.09
		c-2.61,0-5.34,2.06-5.34,6.09c0,4.07,2.73,6.09,5.34,6.09C232.54,31.2,235.46,29.58,235.46,25.11"/>
	<path class="ht1" d="M242.89,9.34c0-1.38,1.23-2.57,2.65-2.57c1.38,0,2.61,1.19,2.61,2.57c0,1.38-1.23,2.57-2.61,2.57
		C244.12,11.91,242.89,10.73,242.89,9.34"/>
	<path class="ht1" d="M248.11,17.33v15.65c0,1.46-1.19,2.65-2.57,2.65c-1.42,0-2.61-1.19-2.61-2.65V17.33
		c0-1.42,1.19-2.61,2.61-2.61C246.92,14.72,248.11,15.9,248.11,17.33"/>
	<path class="ht1" d="M253.17,35.58c-1.42,0-2.61-1.15-2.61-2.57V9.74c0-1.38,1.19-2.57,2.61-2.57c1.38,0,2.57,1.19,2.57,2.57v23.28
		C255.74,34.44,254.55,35.58,253.17,35.58"/>
	<path class="ht1" d="M279.12,23.06c-0.26-1.93-1.08-3.76-2.34-5.25c-2.17-2.55-5.33-3.88-8.67-3.64c-2.17,0.16-4.25,1-5.91,2.41
		c-2.36,2-3.67,4.85-3.67,7.91c0,4.65,3.1,8.69,7.49,9.94c0.43,0.12,0.82,0.38,1.09,0.74l1.45,1.93c0.16,0.22,0.48,0.22,0.65,0
		l1.45-1.93c0.27-0.36,0.65-0.61,1.08-0.73C276.57,33.05,279.84,28.29,279.12,23.06 M268.88,30.17c-3.07,0-5.55-2.48-5.55-5.55
		c0-3.07,2.48-5.55,5.55-5.55s5.55,2.48,5.55,5.55C274.43,27.69,271.94,30.17,268.88,30.17"/>
	<path class="ht1" d="M268.88,21.9c-1.51,0-2.72,1.22-2.72,2.72c0,1.5,1.22,2.72,2.72,2.72c1.5,0,2.72-1.22,2.72-2.72
		C271.6,23.12,270.38,21.9,268.88,21.9"/>
</g>
<g>
	<g>
		<path class="ht1" d="M29.11,14.27c2.92,0,5.64,1.07,8.15,3.2c2.48,2.11,3.72,4.89,3.72,8.34c0,1.16-0.31,2-0.94,2.52
			s-1.6,0.78-2.92,0.78l-14-0.09c0.28,1.67,1.03,2.96,2.24,3.89c1.21,0.93,2.71,1.39,4.5,1.39c1.1,0,2.4-0.33,3.91-0.99
			c1.1-0.5,1.87-0.75,2.31-0.75c0.63,0,1.14,0.2,1.53,0.61c0.39,0.41,0.59,0.91,0.59,1.51c0,0.88-0.5,1.74-1.51,2.59
			c-1.92,1.35-4.27,2.03-7.07,2.03c-2.2,0-4.26-0.42-6.17-1.27c-1.98-0.88-3.6-2.31-4.85-4.29s-1.88-4.27-1.88-6.88
			c0-1.95,0.38-3.76,1.15-5.44c0.77-1.68,1.78-3.02,3.04-4.03C23.42,15.3,26.15,14.27,29.11,14.27z M23.12,24.78H34.9
			c-0.22-1.63-0.86-2.9-1.91-3.79c-1.05-0.9-2.35-1.34-3.89-1.34c-1.57,0-2.91,0.45-4.03,1.34C23.96,21.88,23.31,23.14,23.12,24.78z
			"/>
	</g>
	<polygon class="ht0" points="85.68,10.09 114.62,29.31 117.06,23.23 87.87,4.98 	"/>
	<path class="ht1" d="M18.26,17.09c0,1.76-1.33,2.95-4,2.95c-3.76,0-6.14,2.91-6.38,4.86v11.48c0,1.67-1.43,3.1-3.1,3.1
		c-1.72,0-3.14-1.43-3.14-3.1V17.47c0-1.71,1.43-3.14,3.14-3.14c1.67,0,3.1,1.43,3.1,3.14v2.38c0.19-1.71,3.14-5.62,7.43-5.62
		C17.26,14.23,18.26,15.57,18.26,17.09"/>
	<path class="ht1" d="M56.35,36.14c0,2.19-2.14,3.33-5.38,3.33c-3.24,0-6.53-1.05-6.53-7.67V19.38h-1.38c-1.52,0-2.52-1-2.52-2.43
		c0-1.48,1-2.48,2.52-2.48h1.38v-3.24c0-1.71,1.43-3.14,3.14-3.14s3.1,1.43,3.1,3.14v3.24h3.14c1.57,0,2.52,1,2.52,2.48
		c0,1.43-0.95,2.43-2.52,2.43h-3.14V32c0,1.38,0.48,2.1,1.52,2.1c0.52,0,1.29-0.19,1.81-0.19C55.44,33.81,56.35,34.67,56.35,36.14"
		/>
	<path class="ht1" d="M81.31,17.42v19.01c0,1.72-1.52,3.1-3.19,3.1c-1.71,0-3.14-1.38-3.14-3.1v-0.91
		c-0.38,1.48-2.91,4.05-7.05,4.05c-5.24,0-11.53-4.05-11.53-12.72c0-8.48,6.34-12.67,11.53-12.67c3.38,0,6.1,1.81,7.05,4.05v-0.81
		c0-1.67,1.43-3.1,3.14-3.1C79.78,14.33,81.31,15.76,81.31,17.42 M75.26,26.86c0-5.38-3.53-7.34-6.19-7.34
		c-3.14,0-6.43,2.48-6.43,7.34c0,4.91,3.29,7.34,6.43,7.34C71.73,34.19,75.26,32.24,75.26,26.86"/>
	<path class="ht1" d="M84.21,7.85c0-1.67,1.48-3.1,3.19-3.1c1.67,0,3.14,1.43,3.14,3.1c0,1.67-1.48,3.1-3.14,3.1
		C85.69,10.95,84.21,9.52,84.21,7.85"/>
	<path class="ht1" d="M90.5,17.47v18.86c0,1.76-1.43,3.19-3.1,3.19c-1.71,0-3.14-1.43-3.14-3.19V17.47c0-1.71,1.43-3.14,3.14-3.14
		C89.07,14.33,90.5,15.76,90.5,17.47"/>
	<path class="ht1" d="M96.6,39.48c-1.72,0-3.14-1.38-3.14-3.1V8.33c0-1.67,1.43-3.1,3.14-3.1c1.67,0,3.1,1.43,3.1,3.1v28.06
		C99.69,38.1,98.26,39.48,96.6,39.48"/>
	<path class="ht1" d="M127.88,24.39c-0.32-2.33-1.3-4.53-2.83-6.32c-2.62-3.08-6.43-4.68-10.45-4.39c-2.61,0.19-5.12,1.21-7.12,2.91
		c-2.84,2.41-4.42,5.85-4.42,9.53c0,5.6,3.73,10.47,9.02,11.98c0.52,0.15,0.98,0.45,1.31,0.89l1.75,2.33c0.19,0.26,0.58,0.26,0.78,0
		l1.75-2.33c0.32-0.43,0.78-0.74,1.3-0.89C124.8,36.43,128.74,30.69,127.88,24.39 M115.53,32.96c-3.69,0-6.69-2.99-6.69-6.69
		c0-3.69,2.99-6.69,6.69-6.69c3.69,0,6.69,2.99,6.69,6.69C122.22,29.96,119.23,32.96,115.53,32.96"/>
	<path class="ht1" d="M115.53,22.98c-1.81,0-3.28,1.47-3.28,3.28c0,1.81,1.47,3.28,3.28,3.28c1.81,0,3.28-1.47,3.28-3.28
		C118.82,24.45,117.35,22.98,115.53,22.98"/>
</g>
<g>
	<g>
		<path class="ht1" d="M-134.76,10.63c3.36,0,6.49,1.23,9.38,3.69c2.85,2.42,4.28,5.62,4.28,9.6c0,1.34-0.36,2.3-1.08,2.9
			c-0.72,0.6-1.84,0.89-3.36,0.89l-16.1-0.11c0.33,1.92,1.18,3.41,2.57,4.47c1.39,1.07,3.12,1.6,5.18,1.6c1.26,0,2.76-0.38,4.5-1.14
			c1.26-0.58,2.15-0.87,2.66-0.87c0.72,0,1.31,0.24,1.76,0.7c0.45,0.47,0.68,1.05,0.68,1.74c0,1.01-0.58,2-1.73,2.98
			c-2.21,1.55-4.92,2.33-8.13,2.33c-2.53,0-4.9-0.49-7.1-1.46c-2.28-1.01-4.14-2.66-5.58-4.93c-1.45-2.28-2.17-4.91-2.17-7.91
			c0-2.24,0.44-4.33,1.33-6.26c0.89-1.93,2.05-3.48,3.5-4.64C-141.3,11.82-138.16,10.63-134.76,10.63z M-141.65,22.72h13.55
			c-0.25-1.88-0.98-3.33-2.2-4.36c-1.21-1.03-2.7-1.54-4.47-1.54c-1.81,0-3.35,0.52-4.63,1.54
			C-140.68,19.38-141.43,20.84-141.65,22.72z"/>
	</g>
	<polygon class="ht0" points="-69.69,5.82 -36.39,27.93 -33.59,20.93 -67.17,-0.06 	"/>
	<path class="ht1" d="M-147.24,13.87c0,2.03-1.53,3.4-4.6,3.4c-4.33,0-7.07,3.34-7.34,5.59v13.21c0,1.92-1.64,3.56-3.56,3.56
		c-1.97,0-3.62-1.64-3.62-3.56V14.31c0-1.97,1.64-3.62,3.62-3.62c1.92,0,3.56,1.64,3.56,3.62v2.74c0.22-1.97,3.62-6.47,8.55-6.47
		C-148.39,10.59-147.24,12.12-147.24,13.87"/>
	<path class="ht1" d="M-103.42,35.79c0,2.52-2.47,3.84-6.19,3.84c-3.73,0-7.51-1.21-7.51-8.82V16.5h-1.59c-1.75,0-2.9-1.15-2.9-2.79
		c0-1.7,1.15-2.85,2.9-2.85h1.59V7.13c0-1.97,1.64-3.62,3.62-3.62s3.56,1.64,3.56,3.62v3.73h3.62c1.81,0,2.9,1.15,2.9,2.85
		c0,1.64-1.1,2.79-2.9,2.79h-3.62v14.52c0,1.59,0.55,2.41,1.75,2.41c0.6,0,1.48-0.22,2.08-0.22
		C-104.47,33.11-103.42,34.09-103.42,35.79"/>
	<path class="ht1" d="M-74.71,14.26v21.86c0,1.97-1.75,3.56-3.67,3.56c-1.97,0-3.62-1.59-3.62-3.56v-1.04
		c-0.44,1.7-3.34,4.66-8.11,4.66c-6.03,0-13.26-4.66-13.26-14.63c0-9.75,7.29-14.58,13.26-14.58c3.89,0,7.01,2.08,8.11,4.66v-0.93
		c0-1.92,1.64-3.56,3.62-3.56C-76.47,10.69-74.71,12.34-74.71,14.26 M-81.67,25.11c0-6.19-4.06-8.44-7.12-8.44
		c-3.62,0-7.4,2.85-7.4,8.44c0,5.64,3.78,8.44,7.4,8.44C-85.73,33.55-81.67,31.3-81.67,25.11"/>
	<path class="ht1" d="M-71.37,3.24c0-1.92,1.7-3.56,3.67-3.56c1.92,0,3.62,1.64,3.62,3.56c0,1.92-1.7,3.56-3.62,3.56
		C-69.67,6.8-71.37,5.16-71.37,3.24"/>
	<path class="ht1" d="M-64.14,14.31v21.7c0,2.03-1.64,3.67-3.56,3.67c-1.97,0-3.62-1.64-3.62-3.67v-21.7c0-1.97,1.64-3.62,3.62-3.62
		C-65.78,10.69-64.14,12.34-64.14,14.31"/>
	<path class="ht1" d="M-57.12,39.63c-1.97,0-3.62-1.59-3.62-3.56V3.79c0-1.92,1.64-3.56,3.62-3.56c1.92,0,3.56,1.64,3.56,3.56v32.28
		C-53.56,38.04-55.21,39.63-57.12,39.63"/>
	<path class="ht1" d="M-21.14,22.27c-0.36-2.68-1.5-5.21-3.25-7.27c-3.01-3.54-7.39-5.38-12.02-5.05c-3.01,0.22-5.89,1.39-8.19,3.34
		c-3.27,2.78-5.09,6.73-5.09,10.96c0,6.44,4.29,12.04,10.38,13.79c0.6,0.17,1.13,0.52,1.5,1.02l2.01,2.68c0.22,0.3,0.67,0.3,0.9,0
		l2.01-2.68c0.37-0.5,0.9-0.85,1.5-1.02C-24.68,36.12-20.15,29.52-21.14,22.27 M-35.34,32.13c-4.25,0-7.7-3.45-7.7-7.69
		c0-4.25,3.45-7.69,7.7-7.69c4.25,0,7.69,3.44,7.69,7.69C-27.65,28.68-31.09,32.13-35.34,32.13"/>
	<path class="ht1" d="M-35.34,20.65c-2.09,0-3.78,1.69-3.78,3.78c0,2.09,1.69,3.78,3.78,3.78c2.09,0,3.78-1.69,3.78-3.78
		C-31.56,22.34-33.26,20.65-35.34,20.65"/>
</g>
</svg>
